# xmcd
#
# Track frame offsets:
# 150
# 10189
# 19903
# 37599
# 49196
# 62176
# 79961
# 91134
# 108955
# 132864
# 144022
# 159274
# 177069
# 190087
# 212694
# 227008
# 238053
# 253877
# 268400
# 279850
# 297009
# 318646
#
# Disc length: 4438 seconds
#
#
# Revision: 1
# Processed by: cddbd v1.5.2PL0 Copyright (c) Steve Scherf et al.
# Submitted via: FreeRIP 2.942 
#
DISCID=29115416
DTITLE=Geraldo Azevedo - O Melhor de Geraldo Azevedo
DYEAR=2000
DGENRE=MPB
TTITLE0=Moca bonita
TTITLE1=Dia branco
TTITLE2=Canta coracao
TTITLE3=Caravelas
TTITLE4=Terra a vista
TTITLE5=Chorando e cantando
TTITLE6=Sabor colorido
TTITLE7=Principio do prazer
TTITLE8=Dona da minha cabeca
TTITLE9=Bicho de sete cabecas
TTITLE10=Voce se lembra
TTITLE11=Taxi lunar
TTITLE12=Ai que saudade d oce
TTITLE13=E brincadeira
TTITLE14=Espiral do tempo
TTITLE15=Beleza agreste
TTITLE16=Principe brilhante
TTITLE17=Rasgo de lua
TTITLE18=Tres janeiros
TTITLE19=Baiao de garoa
TTITLE20=For all para todos
TTITLE21=Menina do lido
EXTD=YEAR: 2000
EXTT0=
EXTT1=
EXTT2=
EXTT3=
EXTT4=
EXTT5=
EXTT6=
EXTT7=
EXTT8=
EXTT9=
EXTT10=
EXTT11=
EXTT12=
EXTT13=
EXTT14=
EXTT15=
EXTT16=
EXTT17=
EXTT18=
EXTT19=
EXTT20=
EXTT21=
PLAYORDER=
